HIERARCHY
ROOT Hips
{
	OFFSET -3.958830 18.904000 13.208200
	CHANNELS 6 Xposition Yposition Zposition Zrotation Yrotation Xrotation 
	JOINT LHipJoint
	{
		OFFSET 0.000000 0.000000 0.000000
		CHANNELS 3 Zrotation Yrotation Xrotation
		JOINT LeftUpLeg
		{
			OFFSET 1.800000 -1.400000 0.085000
			CHANNELS 3 Zrotation Yrotation Xrotation
			JOINT LeftLeg
			{
				OFFSET 2.215000 -6.000000 0.000000
				CHANNELS 3 Zrotation Yrotation Xrotation
				JOINT LeftFoot
				{
					OFFSET 2.500000 -6.900000 0.000000
					CHANNELS 3 Zrotation Yrotation Xrotation
					JOINT LeftToeBase
					{
						OFFSET 0.200000 -0.500000 1.950000
						CHANNELS 3 Zrotation Yrotation Xrotation
						End Site
						{
							OFFSET 0.000000 0.000000 0.000000
						}
					}
				}
			}
		}
	}
	JOINT RHipJoint
	{
		OFFSET 0.000000 0.000000 0.000000
		CHANNELS 3 Zrotation Yrotation Xrotation
		JOINT RightUpLeg
		{
			OFFSET -1.800000 -1.400000 0.085000
			CHANNELS 3 Zrotation Yrotation Xrotation
			JOINT RightLeg
			{
				OFFSET -2.215000 -6.000000 0.000000
				CHANNELS 3 Zrotation Yrotation Xrotation
				JOINT RightFoot
				{
					OFFSET -2.500000 -6.900000 0.000000
					CHANNELS 3 Zrotation Yrotation Xrotation
					JOINT RightToeBase
					{
						OFFSET -0.200000 -0.500000 1.950000
						CHANNELS 3 Zrotation Yrotation Xrotation
						End Site
						{
							OFFSET 0.000000 0.000000 0.000000
						}
					}
				}
			}
		}
	}
	JOINT LowerBack
	{
		OFFSET 0.000000 0.000000 0.000000
		CHANNELS 3 Zrotation Yrotation Xrotation
		JOINT Spine
		{
			OFFSET -0.087000 1.940000 -0.288900
			CHANNELS 3 Zrotation Yrotation Xrotation
			JOINT Spine1
			{
				OFFSET 0.000000 1.950000 0.060000
				CHANNELS 3 Zrotation Yrotation Xrotation
				JOINT Neck
				{
					OFFSET 0.000000 0.000000 0.000000
					CHANNELS 3 Zrotation Yrotation Xrotation
					JOINT Neck1
					{
						OFFSET 0.000000 1.600000 0.340000
						CHANNELS 3 Zrotation Yrotation Xrotation
						JOINT Head
						{
							OFFSET 0.000000 1.667000 -0.240000
							CHANNELS 3 Zrotation Yrotation Xrotation
							End Site
							{
								OFFSET 0.000000 0.000000 0.000000
							}
						}
					}
				}
				JOINT LeftShoulder
				{
					OFFSET 0.000000 0.000000 0.000000
					CHANNELS 3 Zrotation Yrotation Xrotation
					JOINT LeftArm
					{
						OFFSET 2.700000 1.550000 -0.730000
						CHANNELS 3 Zrotation Yrotation Xrotation
						JOINT LeftForeArm
						{
							OFFSET 5.450000 0.000000 0.000000
							CHANNELS 3 Zrotation Yrotation Xrotation
							JOINT LeftHand
							{
								OFFSET 3.450000 0.000000 0.000000
								CHANNELS 3 Zrotation Yrotation Xrotation
								JOINT LeftHandIndex1
								{
									OFFSET 0.750000 0.000000 0.000000
									CHANNELS 3 Zrotation Yrotation Xrotation
									End Site
									{
										OFFSET 0.000000 0.000000 0.000000
									}
								}
							}
						}
					}
				}
				JOINT RightShoulder
				{
					OFFSET 0.000000 0.000000 0.000000
					CHANNELS 3 Zrotation Yrotation Xrotation
					JOINT RightArm
					{
						OFFSET -2.700000 1.550000 -0.730000
						CHANNELS 3 Zrotation Yrotation Xrotation
						JOINT RightForeArm
						{
							OFFSET -5.450000 0.000000 0.000000
							CHANNELS 3 Zrotation Yrotation Xrotation
							JOINT RightHand
							{
								OFFSET -3.450000 0.000000 0.000000
								CHANNELS 3 Zrotation Yrotation Xrotation
								JOINT RightHandIndex1
								{
									OFFSET -0.750000 0.000000 0.000000
									CHANNELS 3 Zrotation Yrotation Xrotation
									End Site
									{
										OFFSET 0.000000 0.000000 0.000000
									}
								}
							}
						}
					}
				}
			}
		}
	}
}
MOTION
Frames: 6
Frame Time: 0.016667
0.769820 16.464480 -0.366630 0.292333 -11.045088 -12.639974 -15.525107 12.601844 3.585313 -5.259784 -2.971581 17.593366 -16.008136 16.985832 41.759868 0.835895 11.292858 0.975745 0.310310 0.092130 0.054570 18.380307 -8.131361 4.421491 11.293682 10.813352 -44.357921 -2.792612 -7.802697 59.527271 -1.619460 -8.426426 1.246347 0.106380 0.553250 0.576880 -3.270155 -4.498866 -8.719171 5.177239 -9.390316 36.369426 -4.412269 -8.825136 6.807614 -1.037831 -6.206253 -7.023265 -13.846264 4.225363 27.725197 -3.336010 1.824220 -35.689490 -9.879303 -10.414277 -2.927554 5.242191 -20.719450 -7.189920 81.635064 -70.896420 -54.402239 -3.210183 0.816444 1.137960 0.049650 0.356310 0.350290 12.338674 9.920951 6.834819 28.666476 -10.292557 -19.973920 -42.546445 75.597849 -29.892426 1.201550 -0.647012 -0.435220 0.537870 0.211130 -0.019330 
0.772750 16.409680 -0.390170 0.022541 -10.963262 -13.584238 -15.523663 12.583086 3.588777 -4.853632 -3.220493 18.124036 -16.291346 17.459554 42.550033 0.918459 11.473771 0.938888 0.282710 0.077980 0.032360 18.383400 -8.110165 4.459175 12.087440 11.077176 -43.965539 -3.582982 -7.506357 60.517644 -1.663006 -8.554294 1.232852 0.086740 0.557160 0.563660 -3.273838 -4.471301 -8.761628 5.277406 -9.499452 38.305048 -4.286622 -8.868118 6.690597 -0.887896 -6.098052 -7.286058 -13.648512 3.883586 27.973283 -3.257360 1.675270 -36.202770 -9.792771 -10.925237 -2.525894 6.119012 -19.696315 -7.532956 83.789744 -69.472984 -55.457203 -3.239069 0.816957 1.135820 0.044390 0.364880 0.352730 11.998691 10.434114 6.921965 28.842079 -10.409657 -20.663211 -47.516149 75.211551 -32.799299 1.144402 -0.426078 -0.435540 0.552440 0.209990 -0.007160 
0.798330 16.306680 -0.420860 -1.101284 -11.159608 -14.937866 -15.507015 12.522541 3.569565 -4.143476 -3.654748 18.978363 -16.594910 18.110214 43.682902 1.010574 11.756235 0.870012 0.211590 -0.001550 -0.015550 18.407048 -8.051811 4.568891 13.581290 11.733354 -43.509355 -4.310062 -7.488692 62.439273 -1.751037 -8.886632 1.165664 0.028200 0.572180 0.564530 -3.333658 -4.372316 -8.835377 6.549469 -10.133453 41.490436 -4.363563 -9.070657 6.259808 -0.411437 -5.706566 -7.842558 -12.951779 3.566488 28.665521 -3.914220 1.780010 -36.140340 -9.704934 -12.414733 -1.961962 8.101220 -17.013015 -8.623708 83.093569 -67.961777 -53.807617 -3.308761 0.970033 1.145870 0.052080 0.359820 0.338260 11.018318 11.603400 7.386351 29.327265 -10.433536 -21.543148 -55.419385 73.449417 -36.635242 1.029149 -0.073676 -0.446900 0.551850 0.245330 -0.008080 
0.813540 16.218790 -0.456850 -1.351536 -11.391036 -16.175934 -15.540553 12.486068 3.588003 -4.228645 -3.929093 19.282330 -16.910488 18.747240 45.040335 1.114664 11.999721 0.797097 0.167560 0.004110 -0.069630 18.390924 -7.942431 4.646143 14.430893 12.251758 -43.371285 -4.996913 -7.356620 64.428753 -1.837074 -9.222302 1.096659 0.023220 0.579430 0.555480 -3.265077 -4.442161 -8.910588 6.144115 -9.921400 44.159243 -3.830282 -8.958054 6.252716 -0.245847 -4.886255 -8.054011 -11.426508 3.123947 29.065007 -4.308620 1.994060 -36.122290 -9.099531 -13.284670 -1.708713 8.898402 -15.331052 -9.622264 80.600268 -66.824321 -50.990848 -3.377002 1.132373 1.111830 0.072130 0.368910 0.332390 10.116313 12.094448 7.506341 29.954442 -9.130807 -21.611814 -60.263702 71.373128 -38.499524 0.972502 0.110704 -0.434560 0.566890 0.263410 0.011600 
0.817090 16.178510 -0.485920 -1.841027 -11.571539 -17.160410 -15.535998 12.463706 3.598126 -4.227950 -3.998725 19.622784 -16.768543 19.027310 45.940035 1.228725 12.091692 0.750132 0.169150 0.035060 -0.106670 18.396391 -7.942430 4.664528 15.202376 12.413560 -42.453668 -5.091553 -7.367435 64.711350 -1.869631 -9.288037 1.078894 0.005800 0.554380 0.594630 -3.279209 -4.372887 -8.941756 6.499483 -9.923881 45.393944 -3.920425 -8.799756 7.511598 -0.066345 -4.368957 -8.900784 -10.760860 2.822719 30.291349 -3.645390 1.954250 -34.585010 -7.616182 -14.294174 -0.634647 6.503336 -14.249136 -10.347274 80.763689 -64.766058 -50.803975 -3.437403 1.351199 1.056960 0.075000 0.388590 0.336130 8.226061 12.922318 7.911884 32.488237 -7.752633 -22.307510 -63.351368 69.986351 -40.192657 0.952441 0.179464 -0.355470 0.496350 0.259780 0.045550 
0.807450 16.204900 -0.511070 -1.589229 -11.641023 -17.664336 -15.552093 12.542867 3.642998 -4.801875 -3.693124 19.709446 -16.111596 18.635439 45.901006 1.252406 11.996736 0.797291 0.114310 -0.016550 -0.141700 18.367471 -7.974281 4.605973 15.285409 12.057328 -41.663214 -5.431694 -7.030598 63.924713 -1.824144 -9.090980 1.160443 -0.036290 0.570380 0.571280 -3.202402 -4.475817 -8.958803 5.725941 -9.480167 45.716837 -3.682174 -8.527492 8.611128 0.146246 -4.119783 -9.987013 -10.908131 2.981129 32.376124 -3.077650 2.006830 -33.516950 -6.923707 -15.649767 0.675295 2.523047 -13.254393 -11.074168 80.961901 -63.240661 -51.249850 -3.500021 1.397617 1.055400 0.072350 0.387420 0.327960 7.055792 14.413922 8.589564 35.095542 -6.813913 -23.385463 -59.135930 69.286645 -37.613976 1.022784 0.039646 -0.363650 0.521940 0.281210 0.052810 
